<svg xmlns="http://www.w3.org/2000/svg" version="1.0" width="397.392435pt" height="389.274613pt" viewBox="0 0 397.392435 389.274613" preserveAspectRatio="xMidYMid meet">
<metadata fill="#ffffff">
Created by potrace 1.12, written by Peter Selinger 2001-2015
</metadata>
<g transform="translate(-0.098581,389.733401) scale(0.100000,-0.100000)" fill="#ffffff" stroke="none">
<path d="M2017 3894 c-4 -4 -7 -51 -7 -104 0 -118 -5 -125 -78 -109 -41 10 -54 10 -67 -1 -23 -19 -18 -46 13 -69 22 -16 25 -23 16 -38 -22 -36 -153 -25 -168 14 -3 8 1 27 9 43 18 36 19 40 2 40 -22 0 -47 -35 -53 -72 -6 -31 -2 -38 32 -66 50 -41 109 -51 161 -26 33 17 52 38 88 99 19 31 45 23 60 -19 8 -21 20 -45 27 -53 17 -16 157 -21 231 -9 44 8 48 10 45 35 -2 19 -10 27 -28 29 -14 2 -39 19 -56 37 -37 40 -74 52 -114 35 -40 -16 -38 -30 4 -30 24 0 43 -9 66 -30 43 -40 32 -53 -42 -48 -47 4 -64 10 -86 31 -26 27 -27 31 -30 165 -3 129 -9 162 -25 146z" fill="#ffffff"/>
<path d="M2386 3569 c-28 -22 -51 -57 -42 -66 3 -3 24 11 47 31 24 20 46 36 51 36 4 0 8 5 8 10 0 17 -36 11 -64 -11z" fill="#ffffff"/>
<path d="M1615 3525 c0 -29 20 -33 34 -6 12 21 5 31 -18 31 -10 0 -16 -9 -16 -25z" fill="#ffffff"/>
<path d="M2410 3479 c-12 -21 -30 -237 -22 -253 10 -18 32 45 38 106 3 35 14 74 23 88 31 44 31 48 15 64 -21 22 -41 20 -54 -5z" fill="#ffffff"/>
<path d="M2160 3475 c-13 -15 -7 -45 8 -45 16 0 34 29 28 45 -7 19 -20 19 -36 0z" fill="#ffffff"/>
<path d="M1889 3467 c-58 -44 -48 -157 14 -157 28 0 29 -20 2 -30 -35 -13 -231 -13 -294 1 -57 12 -101 42 -101 69 0 10 12 32 26 49 24 28 24 31 6 31 -50 0 -96 -90 -76 -148 12 -34 54 -64 101 -71 50 -8 52 -37 3 -64 -69 -38 -90 -66 -91 -121 0 -82 -17 -114 -74 -147 -27 -15 -60 -28 -72 -29 -32 0 -40 36 -14 71 24 33 14 45 -18 22 -36 -25 -54 -78 -41 -119 18 -55 73 -58 146 -9 46 31 52 31 66 0 6 -13 20 -27 30 -31 12 -4 18 -12 15 -22 -12 -45 -12 -47 16 -50 29 -4 37 14 15 36 -10 10 -7 17 15 35 35 27 47 91 23 122 -15 19 -15 18 -16 -17 0 -27 -6 -40 -20 -48 -40 -22 -63 64 -45 168 5 33 13 46 31 53 72 28 79 32 62 36 -26 6 -22 20 12 39 16 10 34 30 41 46 l11 28 118 0 c114 0 120 1 151 27 60 51 73 126 24 139 -44 11 -48 29 -10 47 23 11 35 24 35 37 0 17 -6 20 -37 20 -21 0 -45 -6 -54 -13z" fill="#ffffff"/>
<path d="M2048 3473 c-10 -2 -18 -11 -18 -19 0 -22 44 -14 48 9 4 17 1 18 -30 10z" fill="#ffffff"/>
<path d="M2281 3458 c-8 -13 -17 -64 -20 -116 -5 -66 -10 -96 -21 -102 -23 -14 -35 -12 -55 10 -17 18 -17 27 -7 82 6 34 10 64 7 66 -9 10 -24 -11 -43 -66 -23 -61 -55 -90 -87 -78 -14 5 -16 14 -10 54 6 42 5 46 -9 32 -16 -16 -36 -96 -28 -118 2 -7 12 -17 23 -22 21 -12 65 6 88 34 19 23 28 20 46 -14 16 -31 16 -31 -18 -45 -44 -18 -65 -42 -44 -51 21 -8 74 22 82 46 4 13 15 20 30 20 44 0 78 79 90 213 8 79 1 94 -24 55z" fill="#ffffff"/>
<path d="M1381 3408 c0 -9 -8 -24 -17 -32 -30 -31 7 -84 40 -57 20 17 21 51 2 51 -8 0 -17 12 -19 28 -2 15 -5 19 -6 10z" fill="#ffffff"/>
<path d="M2485 3305 c-20 -14 -20 -15 3 -21 22 -6 32 -34 12 -34 -5 0 -10 -7 -10 -16 0 -26 34 -11 44 19 17 47 -14 79 -49 52z" fill="#ffffff"/>
<path d="M2628 3248 c-12 -18 -15 -66 -16 -222 0 -133 3 -195 10 -188 16 16 27 82 35 207 5 91 10 123 22 131 13 11 13 16 -3 53 -22 47 -28 50 -48 19z" fill="#ffffff"/>
<path d="M1350 3183 c-32 -21 -41 -36 -31 -46 10 -10 81 34 77 47 -4 17 -21 17 -46 -1z" fill="#ffffff"/>
<path d="M2505 3180 c-5 -7 -20 -9 -40 -6 -23 5 -36 2 -45 -9 -21 -25 0 -34 60 -27 45 6 55 10 55 26 0 22 -20 32 -30 16z" fill="#ffffff"/>
<path d="M1883 3144 c-4 -10 -2 -19 5 -22 17 -5 15 -23 -5 -38 -10 -7 -15 -16 -11 -19 23 -24 70 43 52 73 -15 23 -33 26 -41 6z" fill="#ffffff"/>
<path d="M2007 3154 c-14 -14 -6 -24 19 -24 16 0 24 5 22 13 -5 14 -31 21 -41 11z" fill="#ffffff"/>
<path d="M1134 3110 c-43 -17 -136 -151 -115 -165 6 -3 26 9 46 26 27 24 48 33 85 37 57 5 71 18 72 62 1 46 -34 62 -88 40z m66 -31 c18 -33 7 -42 -53 -44 -61 -3 -73 8 -39 37 37 33 77 36 92 7z" fill="#ffffff"/>
<path d="M1360 3105 c-13 -16 -6 -33 22 -53 24 -18 14 -32 -23 -32 -43 0 -38 -27 7 -32 32 -4 39 -1 55 26 28 46 24 68 -16 88 -28 14 -35 15 -45 3z" fill="#ffffff"/>
<path d="M1765 3105 c-16 -9 -47 -34 -67 -56 -41 -45 -75 -50 -70 -11 4 27 -9 28 -31 4 -21 -24 -22 -68 -1 -76 35 -14 59 -4 99 39 26 27 60 51 91 62 50 19 66 46 29 51 -11 1 -33 -5 -50 -13z" fill="#ffffff"/>
<path d="M2767 3113 c-4 -3 -7 -21 -7 -39 0 -40 20 -53 70 -47 31 4 43 0 72 -26 45 -39 52 -39 44 0 -7 36 -37 76 -74 101 -26 18 -92 24 -105 11z m92 -37 c27 -29 15 -41 -34 -32 -38 7 -50 19 -41 41 8 23 50 18 75 -9z" fill="#ffffff"/>
<path d="M2293 3089 c-29 -18 -43 -39 -28 -39 12 0 84 40 90 50 11 17 -29 11 -62 -11z" fill="#ffffff"/>
<path d="M2150 2982 c0 -66 -3 -134 -6 -151 -7 -33 9 -43 21 -13 4 9 12 67 16 127 5 61 10 119 11 130 2 14 -4 21 -19 23 -23 3 -23 2 -23 -116z" fill="#ffffff"/>
<path d="M1977 3084 c-10 -10 -8 -109 2 -163 22 -111 141 -120 141 -11 0 22 -4 40 -10 40 -5 0 -10 -11 -10 -24 0 -30 -23 -50 -49 -41 -37 11 -46 35 -46 118 0 74 -9 100 -28 81z" fill="#ffffff"/>
<path d="M2493 3064 c-25 -11 -14 -53 17 -69 18 -9 30 -23 30 -36 0 -29 -28 -35 -53 -11 -29 27 -92 53 -110 46 -8 -3 -29 -32 -47 -65 -44 -83 -80 -100 -80 -37 0 17 -4 27 -10 23 -5 -3 -10 -26 -10 -51 0 -37 4 -46 23 -53 32 -12 59 1 84 40 12 19 30 44 39 57 l16 24 28 -27 c32 -31 88 -38 116 -14 38 32 57 119 32 152 -14 17 -56 29 -75 21z" fill="#ffffff"/>
<path d="M1721 2983 c-10 -21 -35 -52 -55 -70 -20 -17 -36 -39 -36 -48 0 -23 24 -67 49 -89 12 -11 21 -24 20 -30 0 -6 -43 -38 -95 -71 -133 -84 -130 -79 -87 -145 164 -255 204 -551 117 -863 -32 -115 -69 -197 -88 -197 -27 0 -18 -22 44 -109 59 -83 67 -116 22 -92 -35 19 -104 104 -129 159 -26 59 -138 182 -166 182 -19 0 -23 -15 -7 -25 6 -3 10 -17 10 -31 0 -13 5 -24 10 -24 6 0 10 7 10 15 0 26 28 16 59 -22 33 -40 121 -214 121 -239 0 -11 -6 -14 -22 -8 -85 26 -124 71 -156 184 l-10 35 -1 -32 c-1 -41 -12 -41 -45 -2 -19 23 -26 42 -26 74 0 106 -50 280 -97 335 -39 47 -49 39 -56 -44 -9 -118 -33 -144 -71 -75 -19 35 -19 35 7 99 48 121 57 244 23 325 l-13 30 -39 -62 c-21 -34 -47 -76 -56 -93 -21 -36 -38 -39 -38 -6 0 37 17 75 52 115 17 19 46 67 64 105 34 71 70 193 61 203 -3 3 -40 -25 -83 -61 -42 -36 -81 -66 -86 -66 -14 0 -9 54 7 77 9 13 31 30 50 39 63 29 122 92 159 165 35 70 54 134 42 146 -3 3 -40 -20 -82 -52 -50 -38 -79 -54 -86 -47 -19 19 -2 46 47 75 72 41 116 88 165 172 43 77 50 110 15 77 -11 -10 -41 -28 -66 -40 -26 -13 -80 -52 -120 -87 -41 -36 -77 -65 -81 -65 -5 0 -8 31 -8 69 0 39 -4 72 -9 75 -18 11 -69 -62 -80 -114 -15 -68 -14 -117 4 -225 18 -108 18 -125 5 -125 -15 0 -46 76 -54 133 -8 53 -17 59 -34 22 -36 -78 -22 -224 33 -368 35 -89 38 -134 9 -123 -8 3 -2 -13 15 -38 52 -76 90 -196 62 -196 -15 0 -121 123 -121 140 0 9 12 1 29 -19 15 -19 33 -32 40 -30 8 3 -8 35 -43 88 -31 46 -57 89 -57 95 -1 6 -2 22 -3 35 -1 13 -7 26 -15 29 -11 4 -13 -9 -9 -69 7 -95 41 -172 108 -243 38 -40 50 -60 46 -74 -5 -14 7 -29 50 -63 90 -71 197 -219 157 -219 -12 0 -118 63 -157 93 -55 44 -114 122 -126 169 -14 49 -9 56 27 34 18 -11 13 -3 -16 23 -24 23 -47 41 -52 41 -33 0 23 -134 90 -217 23 -29 79 -80 124 -113 135 -99 129 -92 76 -86 -26 3 -63 13 -83 22 -46 22 -54 14 -27 -30 55 -88 175 -162 327 -201 55 -14 107 -30 116 -35 9 -5 36 -12 60 -16 24 -3 59 -11 78 -17 19 -6 51 -12 70 -13 19 -1 73 -14 120 -30 79 -26 97 -28 255 -28 210 -1 276 15 386 95 9 7 24 9 34 5 17 -6 17 -8 -1 -27 -41 -45 -160 -93 -274 -110 -38 -6 -26 -6 40 -2 52 4 120 5 150 3 30 -2 105 -4 165 -4 118 -1 111 -3 248 73 31 18 57 37 57 42 0 5 -17 9 -39 9 -21 0 -44 6 -50 14 -9 10 13 23 114 66 132 56 149 69 220 178 32 48 27 64 -13 39 -67 -44 -152 -68 -152 -43 0 9 28 28 68 47 80 39 168 123 206 197 14 28 26 57 26 65 0 7 9 30 20 52 11 22 20 43 20 47 0 15 -22 8 -52 -17 -52 -44 -67 -25 -22 27 32 40 69 111 84 168 13 48 29 220 20 220 -3 -1 -30 -41 -60 -90 -30 -50 -58 -90 -62 -90 -20 0 -6 81 22 127 43 70 57 165 43 296 -15 128 -19 139 -48 131 -20 -5 -23 -1 -29 44 -14 104 -59 204 -85 188 -5 -3 -11 -31 -14 -62 -7 -68 -14 -77 -36 -44 -51 78 -133 135 -201 142 -34 3 -35 2 -32 -27 6 -60 71 -141 167 -212 47 -35 6 -28 -49 8 -26 17 -49 29 -51 27 -10 -10 24 -99 55 -141 18 -25 59 -66 91 -91 32 -25 67 -63 79 -85 21 -41 26 -71 12 -71 -12 0 -108 103 -115 123 -4 9 -11 17 -18 17 -8 0 -10 -24 -8 -77 4 -77 5 -80 81 -207 81 -134 97 -180 79 -215 -16 -28 -27 -26 -45 7 -19 34 -19 33 3 -58 l18 -74 22 69 c39 121 146 303 167 283 11 -11 -31 -173 -61 -233 -34 -71 -93 -137 -114 -130 -14 4 -20 -4 -29 -33 -7 -21 -21 -47 -32 -57 -19 -17 -20 -17 -30 11 -34 89 -53 258 -35 313 6 20 35 30 35 13 0 -5 7 -17 15 -28 13 -17 13 -15 0 18 -8 21 -15 48 -15 62 0 36 -17 41 -37 9 -27 -41 -24 -239 5 -350 27 -101 27 -106 -2 -139 -23 -27 -23 -28 -34 -7 -13 24 -19 163 -8 181 12 20 -22 25 -49 8 -14 -9 -36 -38 -49 -64 -23 -46 -56 -176 -56 -222 0 -47 -32 -159 -52 -179 -27 -30 -41 -15 -28 29 6 19 10 47 10 63 0 15 9 45 20 66 23 46 17 55 -21 35 -37 -19 -100 -98 -150 -190 -40 -73 -65 -96 -75 -69 -10 24 3 59 41 113 19 29 35 55 35 60 0 5 -12 19 -26 33 -69 64 -108 188 -123 392 -19 255 24 429 150 601 20 28 26 43 18 52 -20 25 -187 114 -213 114 -25 0 -32 -10 -71 -94 -57 -121 -99 -266 -128 -436 l-22 -135 -40 -3 c-51 -3 -125 33 -143 70 -17 37 0 102 33 124 13 9 52 18 86 21 58 6 62 8 75 39 8 18 14 44 14 58 0 31 -34 43 -141 52 -43 4 -83 12 -88 18 -4 6 -29 66 -55 133 -26 67 -56 133 -67 146 l-19 25 37 32 c35 31 39 32 105 28 48 -4 68 -2 65 6 -5 14 -80 34 -182 47 -78 10 -110 23 -99 40 2 5 24 6 48 3 52 -7 63 5 46 47 -17 40 -8 45 32 21 28 -17 42 -20 83 -14 34 5 51 12 53 23 4 20 -56 32 -76 17 -9 -8 -23 -3 -50 16 -51 35 -68 33 -91 -11z m-508 -63 c-4 -3 -36 -28 -70 -54 -34 -25 -75 -65 -90 -89 -31 -45 -63 -61 -63 -30 1 22 53 91 96 127 38 31 115 67 127 59 5 -3 5 -9 0 -13z m1669 -36 c51 -38 98 -106 98 -142 0 -12 -3 -22 -7 -22 -5 0 -41 26 -82 58 -69 54 -128 133 -115 153 7 12 52 -8 106 -47z m203 -117 c8 -28 15 -70 15 -93 0 -52 -36 -154 -55 -154 -12 0 -25 42 -39 125 -4 29 10 174 20 205 8 24 41 -23 59 -83z m-2144 51 c17 -32 24 -209 10 -236 -17 -32 -27 -27 -47 25 -29 76 -19 233 15 233 6 0 16 -10 22 -22z m824 -168 c50 -99 96 -220 89 -231 -13 -22 -28 1 -77 121 -30 71 -59 126 -67 128 -20 3 -137 -67 -145 -87 -3 -8 8 -42 26 -75 17 -34 42 -81 55 -106 31 -58 43 -130 22 -130 -9 0 -20 17 -27 41 -7 23 -39 92 -72 155 -32 62 -59 115 -59 118 0 11 194 136 212 136 4 0 24 -31 43 -70z m1198 -19 c37 -41 50 -91 23 -91 -7 0 -34 19 -60 41 -47 42 -76 85 -76 114 0 24 68 -14 113 -64z m-1808 47 c-21 -70 -138 -201 -192 -214 -32 -8 -34 -5 -22 41 15 60 72 130 131 165 65 37 92 39 83 8z m1251 -30 c23 -11 53 -30 67 -42 l26 -21 -40 -65 c-45 -74 -80 -175 -104 -305 -9 -49 -18 -100 -21 -112 -3 -15 -12 -23 -24 -23 -16 0 -20 7 -20 33 1 82 44 230 112 377 21 46 36 90 33 97 -5 15 -81 52 -106 53 -35 0 -98 -201 -148 -473 -20 -105 -23 -113 -42 -102 -17 11 -7 87 41 286 42 173 80 278 115 312 20 21 46 18 111 -15z m724 -63 c-12 -76 -9 -91 10 -45 37 88 55 -36 24 -170 -17 -76 -56 -132 -77 -111 -19 20 -12 130 12 185 12 27 20 51 17 53 -2 3 -7 -5 -11 -16 -3 -12 -13 -21 -21 -21 -17 0 -17 4 0 66 8 27 17 67 21 89 8 49 14 60 27 47 5 -5 5 -35 -2 -77z m-2286 -53 c39 -75 57 -152 50 -217 -4 -36 -11 -65 -15 -65 -13 0 -50 78 -65 135 -14 52 -19 157 -7 168 12 13 22 7 37 -21z m2201 -247 c39 -78 57 -165 34 -165 -32 0 -150 246 -149 310 1 26 79 -72 115 -145z m-1987 83 c-10 -28 -26 -64 -34 -80 -23 -44 -115 -168 -125 -168 -20 0 -9 106 16 156 25 47 141 158 156 148 4 -2 -2 -27 -13 -56z m991 11 c39 -14 56 -41 41 -68 -11 -21 -18 -24 -102 -41 -74 -15 -108 -51 -108 -114 0 -113 117 -159 294 -116 90 22 96 22 120 6 33 -21 33 -36 -3 -70 -72 -69 -277 -106 -395 -72 -103 30 -173 94 -204 185 -44 127 34 244 188 287 58 16 128 17 169 3z m-984 -279 c8 -35 3 -62 -32 -185 -40 -144 -68 -152 -84 -26 -10 81 1 122 53 199 34 50 54 53 63 12z m671 -135 c15 -62 -36 -356 -76 -436 -45 -87 -81 -73 -43 16 39 92 71 233 79 344 5 74 10 101 20 101 8 0 16 -11 20 -25z m599 -82 c12 -98 53 -243 85 -299 33 -60 24 -82 -13 -32 -35 46 -44 66 -71 155 -31 97 -48 213 -34 230 17 21 25 6 33 -54z m-409 -72 c-13 -147 -76 -410 -102 -432 -28 -23 -24 21 15 183 22 91 46 199 52 241 9 57 15 77 27 77 12 0 14 -11 8 -69z m239 16 c14 -91 67 -288 95 -357 35 -85 34 -80 15 -80 -21 0 -44 40 -75 133 -32 96 -75 319 -66 342 9 26 24 9 31 -38z m-69 35 c16 -10 21 -31 39 -153 27 -186 75 -326 116 -336 27 -8 20 -22 -32 -62 -33 -25 -38 -32 -19 -26 14 4 43 27 66 51 22 24 50 44 61 44 11 0 37 7 58 16 20 8 39 13 42 10 7 -7 -78 -125 -108 -152 -32 -28 -68 -41 -164 -59 -198 -37 -379 -3 -483 91 -43 38 -98 121 -88 131 2 2 27 -13 56 -32 94 -63 173 -103 239 -120 67 -17 95 -14 39 4 -18 6 -46 21 -61 34 l-28 22 26 70 c35 93 82 292 91 385 3 41 9 78 11 83 5 9 124 9 139 -1z m1064 -6 c0 -25 -71 -136 -123 -193 -56 -60 -133 -111 -148 -96 -10 10 43 103 98 171 35 43 146 132 164 132 5 0 9 -6 9 -14z m-300 -133 c-1 -141 -9 -193 -38 -232 -23 -32 -69 -40 -79 -15 -11 29 16 234 38 283 20 46 55 91 71 91 4 0 8 -57 8 -127z m-1671 35 c44 -95 61 -157 61 -223 0 -54 -13 -62 -63 -41 -26 11 -38 22 -42 43 -3 15 -14 56 -25 90 -14 43 -17 69 -11 85 5 13 12 47 16 76 4 28 11 52 17 52 5 0 26 -37 47 -82z m1457 -258 c-19 -143 -111 -263 -181 -236 -13 5 -10 16 16 68 59 118 133 218 160 218 8 0 10 -15 5 -50z m-1556 0 c127 -31 199 -62 230 -96 49 -57 42 -68 -40 -62 -89 7 -184 51 -235 110 -38 45 -46 72 -17 64 9 -3 37 -10 62 -16z m1890 -5 c0 -24 -81 -94 -145 -126 -67 -33 -172 -56 -187 -41 -12 12 57 72 132 115 30 17 84 39 120 48 83 22 80 22 80 4z m-273 -250 c45 -14 -76 -80 -181 -98 -61 -10 -138 -4 -165 13 -22 13 -1 33 60 60 77 32 220 45 286 25z" fill="#ffffff"/>
<path d="M2831 2854 c28 -30 59 -49 59 -36 0 16 -49 62 -66 62 -15 0 -14 -4 7 -26z" fill="#ffffff"/>
<path d="M3046 2728 c-8 -32 -7 -96 2 -101 4 -3 8 24 9 59 1 68 -1 77 -11 42z" fill="#ffffff"/>
<path d="M922 2670 c0 -19 2 -27 5 -17 2 9 2 25 0 35 -3 9 -5 1 -5 -18z" fill="#ffffff"/>
<path d="M2920 2615 c13 -14 28 -25 33 -25 6 0 0 11 -13 25 -13 14 -28 25 -33 25 -6 0 0 -11 13 -25z" fill="#ffffff"/>
<path d="M1025 2578 l-40 -42 43 33 c23 18 42 37 42 42 0 14 -3 12 -45 -33z" fill="#ffffff"/>
<path d="M3138 2434 c-5 -4 -8 -19 -8 -33 1 -23 2 -24 11 -8 11 19 9 53 -3 41z" fill="#ffffff"/>
<path d="M2980 2329 c0 -20 53 -105 57 -92 5 13 -32 88 -47 98 -5 3 -10 1 -10 -6z" fill="#ffffff"/>
<path d="M1882 2338 c-74 -13 -127 -64 -137 -131 -17 -110 27 -206 111 -248 41 -20 63 -24 139 -23 77 0 102 5 173 33 46 18 81 35 78 39 -3 3 -40 -3 -82 -13 -102 -24 -183 -17 -237 22 -57 40 -79 74 -84 130 -7 83 42 135 156 169 98 28 9 45 -117 22z" fill="#ffffff"/>
<path d="M1008 2008 c-24 -59 -22 -82 3 -35 11 21 19 47 17 58 -2 14 -8 7 -20 -23z" fill="#ffffff"/>
<path d="M1695 1310 c8 -13 65 -43 71 -37 5 4 -61 47 -72 47 -3 0 -2 -5 1 -10z" fill="#ffffff"/>
<path d="M3026 1730 c-32 -36 -45 -60 -31 -60 6 0 45 41 62 68 27 39 7 34 -31 -8z" fill="#ffffff"/>
<path d="M2807 1723 c-11 -10 -8 -131 3 -138 6 -4 10 22 10 69 0 76 -1 82 -13 69z" fill="#ffffff"/>
<path d="M1170 1664 c0 -27 5 -56 10 -64 6 -9 7 6 3 45 -7 75 -13 84 -13 19z" fill="#ffffff"/>
<path d="M2561 1401 c-25 -47 -28 -80 -8 -62 15 12 41 90 33 98 -2 3 -14 -13 -25 -36z" fill="#ffffff"/>
<path d="M1145 1424 c38 -19 76 -34 85 -34 22 1 -112 69 -135 69 -11 0 11 -16 50 -35z" fill="#ffffff"/>
<path d="M2798 1413 c-35 -14 -51 -33 -29 -33 14 0 101 39 101 45 0 9 -35 4 -72 -12z" fill="#ffffff"/>
<path d="M2525 1200 l-40 -7 50 -1 c28 -1 57 3 65 8 18 11 -11 11 -75 0z" fill="#ffffff"/>
<path d="M2030 2800 c-13 -9 -13 -12 3 -25 23 -17 49 -9 45 14 -4 19 -28 25 -48 11z" fill="#ffffff"/>
<path d="M2642 2441 c-129 -137 -132 -140 -132 -185 0 -38 -6 -52 -40 -91 -41 -48 -47 -60 -31 -69 18 -12 42 7 68 53 35 62 53 81 74 81 12 0 34 31 70 98 28 53 71 126 93 162 23 36 45 71 50 78 4 7 2 12 -7 12 -7 0 -73 -63 -145 -139z m-39 -143 c6 -19 -3 -38 -18 -38 -18 0 -28 17 -21 35 7 18 33 20 39 3z" fill="#ffffff"/>
<path d="M1180 2317 c-15 -8 -27 -24 -31 -46 -8 -40 4 -139 21 -171 11 -20 18 -22 65 -17 78 8 88 -9 36 -61 -42 -41 -57 -77 -47 -110 11 -33 142 -152 168 -152 16 0 56 33 136 113 106 106 112 115 112 153 0 29 -8 51 -30 80 -27 35 -29 46 -30 116 0 68 -3 79 -22 92 -29 20 -100 20 -139 1 -21 -12 -34 -13 -48 -5 -11 5 -28 10 -38 9 -15 0 -14 -2 5 -11 29 -15 35 -41 25 -114 l-8 -59 -52 -8 c-38 -6 -60 -5 -80 5 -27 13 -28 17 -31 94 -3 76 -1 81 20 92 14 6 17 11 8 11 -8 0 -26 -5 -40 -12z m344 -13 c22 -22 30 -58 22 -106 -9 -53 -21 -68 -57 -68 -15 0 -40 -5 -55 -10 -39 -15 -54 2 -54 65 0 66 15 110 43 123 33 16 84 14 101 -4z m45 -210 c19 -14 22 -23 18 -54 -4 -33 -3 -37 14 -33 11 3 19 0 19 -7 0 -19 -173 -200 -192 -200 -26 0 -22 13 12 46 16 16 30 31 30 34 0 3 -24 5 -52 5 -29 0 -64 4 -78 9 -22 8 -19 2 18 -37 23 -26 42 -51 42 -56 0 -38 -64 -1 -119 69 -41 52 -45 76 -10 67 16 -4 19 1 19 35 0 21 5 48 10 59 13 23 65 46 145 64 81 18 97 18 124 -1z" fill="#ffffff"/>
<path d="M1455 2270 c-3 -5 3 -10 14 -10 11 0 23 5 26 10 3 6 -3 10 -14 10 -11 0 -23 -4 -26 -10z" fill="#ffffff"/>
<path d="M1420 2160 c0 -5 9 -10 20 -10 11 0 20 5 20 10 0 6 -9 10 -20 10 -11 0 -20 -4 -20 -10z" fill="#ffffff"/>
<path d="M1524 1948 l-29 -33 33 29 c30 28 37 36 29 36 -2 0 -16 -15 -33 -32z" fill="#ffffff"/>
<path d="M1295 2210 c3 -5 13 -10 21 -10 8 0 14 5 14 10 0 6 -9 10 -21 10 -11 0 -17 -4 -14 -10z" fill="#ffffff"/>
<path d="M2592 2119 c-20 -7 -23 -14 -17 -37 5 -26 1 -31 -46 -61 l-52 -32 6 -66 c4 -37 10 -70 14 -74 5 -3 59 -9 121 -12 142 -7 152 -1 152 98 0 68 -20 105 -55 105 -10 0 -15 10 -15 29 0 16 -6 33 -12 38 -20 16 -71 22 -96 12z m85 -94 c70 -49 85 -165 21 -165 -22 0 -23 7 -3 26 17 17 20 70 5 79 -17 10 -122 7 -133 -4 -6 -6 -10 -26 -9 -45 1 -19 -1 -37 -6 -40 -17 -10 -42 19 -49 56 -7 45 6 64 62 89 49 23 84 24 112 4z" fill="#ffffff"/>
<path d="M3162 2098 c-17 -23 -44 -80 -38 -85 2 -3 16 18 30 46 26 50 29 64 8 39z" fill="#ffffff"/>
<path d="M2951 2023 c-1 -32 21 -123 31 -123 12 0 9 29 -12 90 -10 31 -18 45 -19 33z" fill="#ffffff"/>
<path d="M890 1781 c0 -9 15 -22 76 -66 15 -11 40 -33 55 -50 16 -16 32 -26 36 -21 7 7 -14 28 -103 101 -48 39 -64 48 -64 36z" fill="#ffffff"/>
<path d="M1401 1425 c0 -11 6 -33 14 -50 l15 -30 -6 35 c-8 44 -23 75 -23 45z" fill="#ffffff"/>
<path d="M375 1413 c-11 -3 -32 -14 -46 -24 -28 -20 -295 -441 -315 -498 -18 -49 -17 -138 1 -192 22 -65 67 -113 137 -148 83 -42 135 -42 182 0 33 28 104 132 119 172 14 37 -13 14 -41 -35 -16 -29 -39 -64 -50 -78 l-21 -25 -16 40 c-69 167 -102 215 -149 215 -47 0 -47 14 -1 83 25 37 51 67 58 67 15 0 92 -78 262 -269 143 -160 246 -254 358 -330 76 -51 88 -56 139 -53 31 2 34 5 90 90 22 34 43 62 47 62 12 0 123 -48 131 -56 4 -5 -14 -58 -41 -119 -26 -60 -48 -115 -49 -122 0 -12 95 -52 235 -97 297 -98 682 -119 1011 -56 129 25 383 106 390 124 3 8 -25 70 -61 140 -60 113 -65 127 -48 133 10 3 42 17 72 30 29 12 58 23 63 23 15 0 112 -110 125 -142 41 -97 180 -23 429 229 78 79 144 143 147 143 3 0 26 -31 50 -69 59 -90 103 -123 171 -129 142 -12 246 139 216 312 -33 187 -159 435 -264 517 -41 32 -126 37 -186 11 -60 -26 -184 -125 -244 -195 -49 -58 -237 -220 -261 -225 -8 -2 -24 13 -37 32 -53 81 -164 88 -283 17 -38 -23 -126 -63 -195 -90 -295 -115 -549 -135 -835 -66 -136 32 -211 61 -371 145 -180 94 -226 93 -289 -7 l-28 -45 -61 59 c-34 33 -133 129 -221 214 -206 198 -253 229 -320 212z m80 -28 c45 -22 505 -454 505 -476 0 -3 -28 -55 -61 -115 -87 -154 -92 -169 -79 -209 14 -42 69 -93 148 -135 33 -17 63 -38 66 -45 8 -22 -17 -45 -54 -51 -31 -5 -45 1 -125 58 -109 77 -251 212 -387 367 -183 207 -216 237 -286 252 l-61 14 93 147 c51 81 101 157 112 169 36 40 77 48 129 24z m3245 -54 c46 -37 110 -127 160 -226 51 -103 51 -115 3 -115 -98 -1 -98 -1 -382 -288 -335 -340 -440 -417 -493 -364 -31 31 -17 62 51 111 73 53 84 79 80 174 -4 62 -11 87 -52 171 -26 54 -47 103 -47 110 0 7 30 37 68 67 37 30 129 113 205 186 218 210 311 250 407 174z m-2397 -375 c255 -131 414 -170 682 -170 151 0 196 3 275 22 160 37 259 73 400 146 113 58 143 69 185 70 32 0 60 -6 78 -18 38 -25 167 -284 174 -349 6 -50 3 -53 -28 -36 -31 16 -73 2 -129 -43 -59 -47 -245 -131 -271 -123 -9 3 -51 -3 -92 -14 -106 -28 -167 -36 -167 -22 0 6 -7 11 -15 11 -8 0 -12 -6 -9 -14 7 -18 -39 -25 -223 -33 -113 -4 -153 -3 -153 5 0 7 -7 12 -15 12 -8 0 -15 -4 -15 -10 0 -13 -94 -13 -218 0 -126 13 -142 17 -142 35 0 18 -16 20 -26 4 -9 -16 -79 -6 -194 26 -79 22 -97 24 -117 14 -20 -11 -32 -9 -81 11 -95 39 -320 172 -337 200 -8 14 140 273 181 317 50 53 84 47 257 -41z m-1163 52 c0 -19 -98 -168 -110 -168 -17 0 -11 25 20 86 38 74 90 120 90 82z m60 -9 c0 -14 -162 -249 -172 -249 -20 0 -3 37 67 145 41 63 82 115 90 115 8 0 15 -5 15 -11z m3707 -34 c20 -14 42 -89 30 -101 -8 -8 -79 95 -72 106 8 14 17 13 42 -5z m-13 -84 c42 -56 66 -98 66 -115 0 -34 -13 -33 -36 2 -9 15 -44 62 -76 105 -32 43 -56 82 -53 88 14 22 37 4 99 -80z m-88 17 c36 -48 37 -52 19 -62 -43 -25 -107 -92 -145 -152 -22 -35 -45 -64 -50 -64 -14 0 -71 102 -68 122 3 18 183 208 198 208 4 0 25 -23 46 -52z m-3594 -97 l31 -28 -22 -37 c-35 -56 -72 -44 -105 35 -11 27 -12 39 -4 47 21 21 66 13 100 -17z m3656 -32 c-3 -44 -8 -55 -31 -73 l-29 -21 -29 33 c-16 18 -29 36 -29 41 0 18 72 71 96 71 24 0 25 -2 22 -51z m-3766 -35 c-6 -11 -20 -28 -32 -39 -18 -16 -23 -17 -30 -5 -9 15 1 42 28 73 14 15 18 16 30 3 10 -10 11 -19 4 -32z m3848 -31 c0 -7 -6 -13 -14 -13 -17 0 -46 42 -46 67 0 13 6 11 30 -12 17 -16 30 -35 30 -42z m-3686 21 c6 -17 -79 -164 -94 -164 -24 0 -17 28 25 100 26 44 50 80 55 80 4 0 11 -7 14 -16z m-130 -19 c6 -15 -30 -85 -44 -85 -4 0 -13 7 -20 15 -10 12 -8 21 14 50 30 38 41 43 50 20z m3665 -50 c59 -74 70 -95 48 -95 -19 0 -127 123 -127 144 0 32 27 15 79 -49z m128 -9 c-4 -9 -11 -16 -16 -16 -17 0 -44 49 -37 67 6 15 10 14 33 -9 16 -16 23 -32 20 -42z m-3747 28 c0 -17 -45 -84 -57 -84 -18 0 -16 13 8 54 18 31 49 49 49 30z m3617 -102 c10 -15 13 -26 6 -33 -15 -15 -35 -2 -81 57 -37 47 -42 57 -31 70 12 14 18 11 51 -27 22 -24 46 -54 55 -67z m-3507 92 c0 -19 -64 -114 -76 -114 -20 0 -18 4 21 65 30 48 55 69 55 49z m3579 -20 c22 -28 28 -54 12 -54 -10 0 -61 62 -61 73 0 17 31 5 49 -19z m-2999 -9 c0 -16 -27 -28 -36 -14 -7 12 15 41 27 33 5 -3 9 -11 9 -19z m-552 -40 c16 -34 16 -32 -18 -50 -28 -15 -50 -13 -50 3 0 13 40 72 48 72 5 0 14 -11 20 -25z m572 -5 c-22 -30 -31 -35 -43 -23 -9 9 33 53 50 53 11 0 9 -8 -7 -30z m2814 -1 c34 -40 33 -53 -2 -35 -36 18 -56 42 -47 56 10 17 22 12 49 -21z m-626 5 c16 -11 22 -24 20 -42 -5 -40 -25 -37 -47 6 -26 52 -16 66 27 36z m-2138 -5 c0 -15 -39 -69 -51 -69 -17 0 -9 33 13 57 23 25 38 30 38 12z m43 -15 c8 -8 -33 -84 -45 -84 -19 0 -18 31 2 60 21 30 31 35 43 24z m2025 -39 c23 -47 29 -80 13 -71 -17 11 -62 96 -56 106 11 18 21 10 43 -35z m-1989 -39 c-21 -36 -42 -43 -47 -15 -1 8 7 29 19 48 18 30 22 32 35 19 13 -13 13 -19 -7 -52z m1955 4 c25 -46 27 -70 6 -70 -11 0 -50 81 -50 103 0 30 16 18 44 -33z m-1874 -5 c0 -25 -45 -69 -63 -62 -22 8 -21 25 3 65 17 28 23 31 40 22 11 -6 20 -17 20 -25z m1835 -25 c42 -84 30 -95 -29 -25 -21 26 -35 52 -32 60 11 29 36 14 61 -35z m-1330 -85 c341 -50 704 -41 957 24 68 18 74 18 89 3 19 -19 119 -213 119 -229 0 -7 -25 -21 -55 -32 -329 -123 -743 -153 -1105 -80 -100 20 -369 104 -395 123 -13 9 -13 15 -2 36 7 14 30 66 51 115 21 50 43 93 48 96 5 3 51 -5 101 -17 51 -13 137 -30 192 -39z" fill="#ffffff"/>
<path d="M400 1255 c-7 -20 -7 -31 1 -41 9 -11 8 -18 -1 -29 -15 -18 -31 -10 -23 10 3 8 1 15 -5 15 -14 0 -19 -19 -14 -48 4 -19 9 -22 29 -17 21 5 24 3 21 -17 -3 -20 -10 -24 -53 -28 -44 -4 -50 -8 -52 -30 -2 -17 5 -31 23 -43 14 -11 28 -16 32 -12 4 4 -3 14 -15 22 -40 27 -21 59 26 46 24 -6 71 21 71 41 0 16 38 66 51 66 20 0 7 -26 -39 -79 -69 -81 -74 -89 -64 -95 4 -2 35 29 68 70 32 40 62 74 66 74 22 0 10 -23 -43 -85 -32 -39 -59 -77 -58 -85 0 -8 17 5 37 30 20 25 54 62 74 84 21 21 38 42 38 47 0 17 24 9 52 -18 15 -14 31 -23 35 -20 4 4 -9 21 -28 37 -26 23 -41 29 -63 25 -24 -4 -39 4 -92 51 l-64 56 -10 -27z m54 -33 c15 -18 15 -20 -5 -38 -21 -19 -22 -19 -15 3 4 12 2 24 -4 28 -12 7 -13 25 -2 25 5 0 16 -8 26 -18z" fill="#ffffff"/>
<path d="M551 1085 c-42 -48 -40 -63 9 -67 l40 -3 -40 -49 c-22 -26 -40 -53 -40 -60 1 -12 39 28 102 104 l37 45 28 -27 27 -27 -22 -24 c-12 -13 -19 -26 -16 -30 4 -4 12 0 19 9 6 9 19 15 29 13 15 -3 10 -14 -29 -61 -50 -61 -71 -70 -99 -39 -16 17 -15 21 18 64 42 55 32 73 -11 19 -45 -56 -45 -66 -8 -102 25 -24 37 -30 50 -23 18 11 105 114 105 125 0 5 8 8 18 8 19 0 -94 109 -114 110 -7 0 -19 11 -28 25 -22 34 -38 32 -75 -10z m53 9 c9 -3 16 -17 16 -30 0 -21 -5 -24 -35 -24 -40 0 -41 2 -19 35 18 28 17 27 38 19z" fill="#ffffff"/>
<path d="M3655 1225 c-3 -8 -7 -21 -9 -28 -2 -7 -16 -13 -32 -15 -15 -1 -39 -9 -52 -18 -23 -15 -26 -15 -37 0 -28 37 -24 12 6 -45 39 -72 73 -103 99 -89 27 14 33 37 35 128 1 81 -1 96 -10 67z m-4 -89 c10 -35 -13 -96 -35 -96 -18 0 -66 60 -66 83 0 22 40 48 69 45 18 -2 27 -11 32 -32z" fill="#ffffff"/>
<path d="M3410 1084 c0 -21 41 -64 61 -64 11 0 30 5 41 11 24 13 38 -1 38 -42 0 -60 -50 -65 -113 -9 -25 22 -48 40 -52 40 -14 0 1 -19 43 -54 31 -26 54 -36 77 -36 59 0 86 69 44 111 -19 19 -22 19 -38 5 -26 -24 -43 -20 -73 16 -15 18 -28 28 -28 22z" fill="#ffffff"/>
<path d="M3234 950 c10 -7 50 -15 89 -19 63 -5 73 -9 86 -32 8 -15 11 -34 7 -45 -6 -17 -10 -15 -32 14 -29 37 -44 40 -68 13 -20 -22 -18 -52 4 -59 13 -5 13 -3 1 11 -11 14 -11 20 -1 32 28 34 69 1 70 -58 l1 -22 19 24 c25 29 26 82 2 112 -15 18 -30 23 -73 24 -30 1 -70 5 -89 9 -29 6 -32 5 -16 -4z" fill="#ffffff"/>
<path d="M3150 806 c14 -8 42 -15 63 -16 54 0 77 -15 77 -50 0 -23 -21 -60 -35 -60 -30 0 -49 43 -22 53 6 2 8 8 4 13 -8 8 -37 -21 -37 -37 0 -16 33 -39 55 -39 17 0 29 9 40 30 31 59 11 90 -66 101 -30 4 -65 11 -79 14 l-25 6 25 -15z" fill="#ffffff"/>
<path d="M1025 879 c4 -5 -1 -19 -11 -30 -9 -10 -14 -22 -10 -27 4 -4 14 1 21 12 16 21 45 15 45 -9 0 -23 -37 -55 -65 -55 -27 0 -65 -31 -65 -54 0 -15 42 -46 62 -46 7 0 0 11 -17 24 -24 20 -27 26 -17 39 7 8 32 20 56 26 34 8 46 17 56 41 13 31 30 40 30 17 0 -8 -16 -46 -35 -87 -20 -40 -34 -77 -32 -84 3 -6 24 28 47 77 23 48 49 87 56 87 15 0 13 -6 -30 -103 -32 -72 -32 -85 0 -97 33 -13 42 -7 65 48 18 42 19 47 3 61 -15 15 -16 14 -12 -5 6 -24 -21 -86 -39 -92 -27 -8 -23 29 11 102 l35 77 37 -16 c20 -8 38 -15 40 -15 3 0 -2 -13 -11 -30 -9 -16 -11 -30 -6 -30 6 0 15 9 21 20 15 28 42 14 38 -19 -2 -20 -14 -32 -53 -51 -58 -29 -70 -59 -33 -84 12 -9 32 -16 43 -15 15 0 12 4 -12 15 -18 8 -33 18 -33 23 0 26 16 42 51 51 38 11 46 20 64 74 3 13 9 16 15 10 7 -7 -1 -41 -20 -99 -16 -49 -28 -91 -25 -93 9 -9 15 3 44 89 28 86 45 103 80 80 11 -7 12 -17 2 -57 -12 -47 -9 -55 22 -67 5 -1 5 -15 2 -30 -6 -24 -12 -28 -39 -25 -27 3 -31 7 -30 33 0 17 4 48 8 70 6 30 5 37 -3 29 -17 -15 -37 -122 -26 -133 6 -6 29 -13 52 -17 47 -7 51 -2 68 74 7 32 6 33 -20 26 -29 -7 -29 -10 -10 55 7 22 8 22 31 -17 23 -38 23 -42 9 -88 -8 -27 -15 -56 -15 -64 0 -28 18 5 35 64 16 57 16 59 -4 80 -30 32 -27 50 7 41 15 -3 31 -10 36 -15 4 -4 -1 -47 -12 -97 -19 -82 -20 -113 -4 -86 4 6 16 50 26 98 l19 86 31 -6 c56 -12 66 -16 66 -32 0 -12 -7 -14 -34 -9 -42 8 -50 -2 -65 -79 -13 -69 -6 -83 48 -87 38 -3 32 -16 61 125 7 37 16 57 26 57 17 0 17 5 0 -100 -13 -80 -13 -101 0 -88 14 15 43 232 32 244 -2 1 -28 6 -57 10 -40 5 -52 4 -47 -5 4 -6 22 -11 41 -11 32 0 54 -14 42 -27 -11 -10 -222 39 -347 80 -99 33 -125 46 -125 60 0 10 -10 26 -21 35 -12 9 -24 24 -27 32 -4 12 -6 11 -13 -4 -4 -12 -3 -21 3 -23 23 -8 46 -30 36 -36 -6 -4 -52 14 -102 38 -99 48 -106 51 -96 34z m631 -283 c3 -8 0 -40 -6 -70 -9 -43 -16 -56 -29 -56 -32 0 -40 21 -30 73 5 27 11 53 14 58 9 14 45 11 51 -5z" fill="#ffffff"/>
<path d="M2855 833 c-80 -41 -267 -114 -340 -133 -27 -7 -54 -17 -60 -23 -10 -9 3 -8 63 9 35 10 28 -22 -8 -35 -35 -12 -35 -14 -14 -89 22 -77 31 -85 75 -71 18 7 35 13 36 14 2 1 -6 33 -16 71 -11 38 -18 71 -15 73 9 10 26 -19 29 -48 3 -38 12 -50 21 -27 4 10 1 35 -5 57 -10 32 -16 39 -36 39 -36 0 -31 26 6 39 41 14 39 15 39 -14 0 -38 42 -156 57 -162 19 -7 31 6 15 16 -14 8 -62 131 -62 157 0 13 108 71 115 62 1 -2 8 -13 14 -26 11 -20 10 -26 -6 -38 -10 -7 -25 -14 -34 -14 -30 0 -38 -22 -24 -64 18 -53 29 -62 57 -48 23 10 23 11 2 11 -26 1 -53 56 -37 72 8 8 13 7 17 0 10 -16 26 -13 26 4 0 30 22 14 41 -30 11 -25 24 -45 30 -45 5 0 2 17 -7 38 -8 20 -25 61 -36 91 -20 52 -20 55 -2 68 29 21 42 16 64 -28 18 -35 25 -40 45 -35 25 6 45 -15 45 -47 0 -11 -38 -37 -55 -37 -3 0 -16 22 -30 49 -24 49 -45 72 -45 51 0 -21 49 -108 65 -114 23 -9 85 24 85 46 0 10 -10 37 -21 60 -19 37 -23 40 -34 25 -17 -23 -22 -22 -40 13 -20 38 -19 43 4 30 11 -5 29 -10 40 -10 15 0 29 -16 52 -62 18 -35 34 -58 36 -51 5 13 -44 114 -59 124 -6 4 -18 5 -27 3 -9 -3 -23 0 -31 6 -13 9 -13 12 4 25 10 8 24 16 30 18 6 2 9 7 6 10 -3 3 -36 -11 -75 -30z m-286 -256 c13 -51 13 -59 1 -67 -24 -16 -34 -6 -53 49 -14 42 -15 56 -6 68 23 27 43 10 58 -50z" fill="#ffffff"/>
<path d="M2273 693 c-7 -2 -13 -13 -13 -23 0 -28 -44 -34 -265 -33 -110 1 -195 -1 -190 -3 6 -2 9 -22 7 -43 -3 -33 0 -40 17 -46 22 -7 26 -30 15 -72 -8 -28 -24 -30 -24 -3 0 11 -5 20 -11 20 -6 0 -9 -12 -7 -27 2 -22 8 -28 28 -28 20 0 26 6 28 28 5 38 26 29 32 -14 5 -32 6 -33 13 -9 4 14 7 46 7 71 0 26 3 61 6 78 6 30 9 31 55 31 37 0 49 -4 49 -15 0 -10 -10 -15 -29 -15 -43 0 -52 -19 -49 -97 l3 -68 48 -3 47 -3 0 101 0 101 48 -3 c53 -3 63 -20 17 -28 -29 -5 -30 -7 -33 -65 -5 -92 1 -105 48 -105 l40 0 0 75 c0 41 4 75 9 75 13 0 21 -41 14 -70 -5 -23 -4 -24 10 -10 23 21 12 91 -15 98 -24 6 -19 35 6 40 29 6 35 -8 45 -101 8 -80 15 -108 24 -96 2 2 -1 46 -6 97 -9 85 -6 115 9 99 3 -3 11 -44 18 -91 6 -46 14 -88 19 -92 10 -10 9 36 -4 117 -6 39 -9 72 -7 74 1 2 24 6 51 10 39 6 47 5 47 -8 0 -9 -13 -18 -31 -22 -17 -4 -32 -12 -35 -19 -2 -6 1 -41 8 -76 l13 -65 39 -3 c21 -2 43 1 48 6 6 6 3 45 -7 101 -9 50 -13 97 -9 103 7 11 -77 5 -111 -8 -9 -4 -15 0 -15 10 0 11 9 16 28 16 15 0 34 5 42 10 11 7 4 10 -25 9 -22 0 -46 -3 -52 -6z m-387 -73 c15 0 18 -28 8 -79 -7 -32 -24 -33 -24 -2 0 10 -9 21 -20 24 -13 3 -20 14 -20 29 0 30 9 40 28 33 7 -3 20 -5 28 -5z m508 -47 c18 -97 17 -100 -6 -106 -31 -8 -35 -3 -48 58 -13 62 -9 75 25 75 18 0 25 -7 29 -27z m-376 -70 c-3 -65 -4 -68 -28 -68 -23 0 -25 4 -28 54 -4 68 1 81 33 81 26 0 26 -1 23 -67z m122 3 c0 -67 -7 -80 -34 -70 -12 5 -16 21 -16 70 0 62 1 64 25 64 24 0 25 -2 25 -64z" fill="#ffffff"/>
<path d="M1424 325 c3 -8 -1 -33 -10 -56 -8 -24 -12 -51 -8 -61 7 -22 44 -33 81 -23 38 9 53 23 53 51 0 18 -9 28 -37 39 -48 20 -56 11 -9 -11 55 -27 43 -61 -23 -66 -45 -4 -56 15 -41 71 10 37 14 42 33 37 62 -15 110 -19 103 -8 -4 7 -21 12 -37 12 -16 0 -46 7 -66 15 -44 19 -47 19 -39 0z" fill="#ffffff"/>
<path d="M1721 314 c10 -13 24 -15 61 -11 48 6 70 -5 50 -25 -6 -6 -29 -6 -67 1 -32 6 -61 8 -64 5 -3 -4 0 -9 7 -11 8 -3 12 -28 12 -74 0 -67 1 -69 25 -69 24 0 44 -24 31 -37 -9 -9 -58 -8 -81 2 -18 8 -19 7 -6 -8 28 -35 121 -14 106 25 -3 8 7 23 25 36 16 13 30 31 30 41 0 20 -30 51 -48 51 -20 0 -13 -17 8 -23 35 -9 25 -46 -16 -63 -52 -22 -66 -6 -55 61 4 28 11 49 17 48 74 -12 124 -14 124 -4 0 6 -7 11 -15 11 -10 0 -15 10 -15 26 0 26 -1 27 -54 20 -33 -3 -57 -2 -61 4 -3 5 -11 10 -17 10 -6 0 -5 -6 3 -16z" fill="#ffffff"/>
<path d="M2458 323 c-27 -7 -22 -23 7 -23 22 0 25 -4 25 -35 0 -33 -2 -35 -27 -29 -59 13 -63 15 -63 40 0 28 -7 29 -34 9 -14 -11 -16 -15 -5 -15 17 0 43 -38 43 -65 1 -29 46 -34 46 -6 0 27 10 26 45 -1 l28 -22 -7 24 c-17 61 -18 86 -2 99 9 7 16 17 16 22 0 9 -41 10 -72 2z" fill="#ffffff"/>
<path d="M2130 259 c-25 -6 -62 -7 -83 -4 -22 3 -47 0 -60 -7 -21 -12 -21 -13 13 -18 40 -6 49 -33 13 -38 -13 -2 -23 -8 -23 -13 0 -11 3 -11 34 1 19 7 26 17 26 35 0 52 31 23 48 -43 10 -43 10 -43 -16 -40 -15 1 -47 -1 -71 -6 -38 -7 -47 -5 -58 10 -12 17 -13 17 -13 -3 0 -29 21 -34 85 -21 48 9 58 9 74 -6 28 -25 32 -7 15 64 -8 34 -12 65 -9 68 3 3 27 6 52 6 l48 1 8 -55 c5 -30 13 -59 19 -65 10 -10 8 10 -9 97 -4 22 -1 30 18 37 20 8 17 10 -21 9 -25 0 -65 -4 -90 -9z" fill="#ffffff"/>
<path d="M1210 1262 c0 -17 97 -73 163 -94 53 -17 76 -19 157 -13 52 4 120 7 150 7 l55 -1 -40 13 c-22 7 -49 17 -61 24 -17 9 -22 7 -33 -10 -12 -19 -20 -20 -104 -15 -99 6 -152 18 -182 42 -20 15 -20 15 -1 30 19 14 18 15 -11 15 -17 0 -45 3 -62 6 -18 4 -31 2 -31 -4z" fill="#ffffff"/>
<path d="M1438 1213 c12 -2 30 -2 40 0 9 3 -1 5 -23 4 -22 0 -30 -2 -17 -4z" fill="#ffffff"/>
<path d="M1899 1132 c15 -11 7 -32 -14 -32 -7 0 -25 -14 -39 -31 -33 -39 -36 -109 -6 -139 24 -24 79 -26 119 -6 25 13 30 13 57 -5 40 -26 80 -24 109 6 39 38 34 86 -15 139 -22 24 -40 48 -40 55 0 7 -25 11 -74 11 -41 0 -83 3 -93 6 -14 4 -15 4 -4 -4z m130 -31 c48 -25 62 -43 63 -80 1 -44 -18 -62 -66 -60 -23 1 -58 -2 -78 -6 -82 -16 -110 15 -76 85 39 78 87 96 157 61z" fill="#ffffff"/>
<path d="M1590 1084 c-21 -24 9 -45 87 -60 83 -16 100 -17 88 -5 -6 6 -38 14 -73 20 -75 12 -85 17 -77 42 8 23 -8 25 -25 3z" fill="#ffffff"/>
<path d="M1700 1092 c0 -15 24 -32 45 -31 17 1 18 2 2 6 -11 3 -16 11 -13 19 3 9 -1 14 -14 14 -11 0 -20 -4 -20 -8z" fill="#ffffff"/>
<path d="M2225 1089 c4 -5 -1 -19 -11 -30 -18 -20 -6 -27 13 -8 13 13 108 8 107 -6 0 -5 -20 -18 -45 -28 l-44 -18 43 5 c54 5 72 20 72 58 0 29 -1 30 -39 23 -24 -4 -42 -2 -46 4 -3 6 -17 11 -31 11 -15 0 -23 -4 -19 -11z" fill="#ffffff"/>
<path d="M1624 976 c-8 -20 -1 -49 12 -53 6 -2 10 7 10 19 -1 20 5 23 37 26 49 4 38 22 -14 22 -25 0 -42 -5 -45 -14z" fill="#ffffff"/>
<path d="M2210 954 l-25 -15 30 6 c17 4 34 11 40 16 15 15 -17 10 -45 -7z" fill="#ffffff"/>
<path d="M2308 954 c13 -9 21 -22 18 -30 -6 -16 20 -19 29 -3 10 15 -24 49 -49 49 -20 0 -20 -1 2 -16z" fill="#ffffff"/>
</g>
</svg>